# xmcd
#
# Track frame offsets:
#	150
#	18897
#	37901
#	56920
#	68616
#	86460
#	105587
#	123868
#	148753
#	170565
#	186305
#	205227
#	224429
#	244582
#	260423
#	278481
#	290216
#	309629
#	327330
#
# Disc length: 4518 seconds
#
# Revision: 1
# Processed by: cddbd v1.5.1PL2 Copyright (c) Steve Scherf et al.
# Submitted via: audiograbber 1.83.01
#
DISCID=1b11a413
DTITLE=Keb Mo - Black Cowboy
DYEAR=1900
DGENRE=
TTITLE0=City Boy
TTITLE1=Come on in My Kitchen
TTITLE2=Every Morning
TTITLE3=Flat Broke and Busted
TTITLE4=Folsom Prison Blues
TTITLE5=Gimme What You Got
TTITLE6=I'm So Lonesome I Could Cry
TTITLE7=It Hurts Me To
TTITLE8=It's All Comning Back
TTITLE9=Just Like You
TTITLE10=That's Not Love
TTITLE11=Loola Loo
TTITLE12=Love Train
TTITLE13=She Yust Wants To Dance
TTITLE14=The Door
TTITLE15=Yo Can Love Yourself
TTITLE16=Angel feat. Dave Matthews Band
TTITLE17=Till It Shines feat. Lyle Lovette
TTITLE18=Crapped Out Again
EXTD=
EXTT0=
EXTT1=
EXTT2=
EXTT3=
EXTT4=
EXTT5=
EXTT6=
EXTT7=
EXTT8=
EXTT9=
EXTT10=
EXTT11=
EXTT12=
EXTT13=
EXTT14=
EXTT15=
EXTT16=
EXTT17=
EXTT18=
PLAYORDER=
